<?xml version="1.0" encoding="utf-8" ?>
<svg baseProfile="full" height="480" version="1.1" width="320" xmlns="http://www.w3.org/2000/svg" xmlns:ev="http://www.w3.org/2001/xml-events" xmlns:xlink="http://www.w3.org/1999/xlink"><defs /><line stroke="black" stroke-width="3" x1="160.0" x2="70.0" y1="40" y2="120" /><line stroke="black" stroke-width="3" x1="160.0" x2="160.0" y1="40" y2="120" /><line stroke="black" stroke-width="3" x1="160.0" x2="250.0" y1="40" y2="120" /><line stroke="black" stroke-width="3" x1="250.0" x2="250.0" y1="120" y2="200" /><line stroke="black" stroke-width="3" x1="250.0" x2="250.0" y1="200" y2="280" /><line stroke="black" stroke-width="3" x1="250.0" x2="250.0" y1="280" y2="360" /><line stroke="black" stroke-width="3" x1="250.0" x2="220" y1="360" y2="440" /><line stroke="black" stroke-width="3" x1="250.0" x2="280" y1="360" y2="440" /><line stroke="black" stroke-width="3" x1="160.0" x2="160" y1="120" y2="200" /><line stroke="black" stroke-width="3" x1="70.0" x2="40" y1="120" y2="200" /><line stroke="black" stroke-width="3" x1="70.0" x2="100" y1="120" y2="200" /><circle cx="40" cy="200" fill="white" r="20" stroke="black" stroke-width="2" /><text font-size="16" text-anchor="middle" x="40" y="205.33333333333334"><tspan>D</tspan></text><circle cx="100" cy="200" fill="white" r="20" stroke="black" stroke-width="2" /><text font-size="16" text-anchor="middle" x="100" y="205.33333333333334"><tspan>E</tspan></text><circle cx="70.0" cy="120" fill="white" r="20" stroke="black" stroke-width="2" /><text font-size="16" text-anchor="middle" x="70.0" y="125.33333333333333"><tspan>B</tspan></text><circle cx="160" cy="200" fill="white" r="20" stroke="black" stroke-width="2" /><text font-size="16" text-anchor="middle" x="160" y="205.33333333333334"><tspan>F</tspan></text><circle cx="160.0" cy="120" fill="white" r="20" stroke="black" stroke-width="2" /><text font-size="16" text-anchor="middle" x="160.0" y="125.33333333333333"><tspan>C</tspan></text><circle cx="220" cy="440" fill="white" r="20" stroke="black" stroke-width="2" /><text font-size="16" text-anchor="middle" x="220" y="445.3333333333333"><tspan>K</tspan></text><circle cx="280" cy="440" fill="white" r="20" stroke="black" stroke-width="2" /><text font-size="16" text-anchor="middle" x="280" y="445.3333333333333"><tspan>L</tspan></text><circle cx="250.0" cy="360" fill="white" r="20" stroke="black" stroke-width="2" /><text font-size="16" text-anchor="middle" x="250.0" y="365.3333333333333"><tspan>J</tspan></text><circle cx="250.0" cy="280" fill="white" r="20" stroke="black" stroke-width="2" /><text font-size="16" text-anchor="middle" x="250.0" y="285.3333333333333"><tspan>I</tspan></text><circle cx="250.0" cy="200" fill="white" r="20" stroke="black" stroke-width="2" /><text font-size="16" text-anchor="middle" x="250.0" y="205.33333333333334"><tspan>H</tspan></text><circle cx="250.0" cy="120" fill="white" r="20" stroke="black" stroke-width="2" /><text font-size="16" text-anchor="middle" x="250.0" y="125.33333333333333"><tspan>G</tspan></text><circle cx="160.0" cy="40" fill="white" r="20" stroke="black" stroke-width="2" /><text font-size="16" text-anchor="middle" x="160.0" y="45.333333333333336"><tspan>A</tspan></text></svg>